<svg width="158" height="70" viewBox="0 0 158 70" fill="none" xmlns="http://www.w3.org/2000/svg">
<g filter="url(#filter0_d_47_4676)">
<path d="M8 14C8 9.58172 11.5817 6 16 6H137.5C141.918 6 145.5 9.58172 145.5 14V48C145.5 52.4183 141.918 56 137.5 56H16C11.5817 56 8 52.4183 8 48V14Z" fill="#090909"/>
<path d="M39.5165 31.6857C39.5437 29.5732 40.6747 27.5743 42.4689 26.4679C41.337 24.8463 39.4411 23.8182 37.4687 23.7563C35.3649 23.5348 33.3254 25.0191 32.2533 25.0191C31.1605 25.0191 29.5099 23.7783 27.7325 23.815C25.4157 23.8901 23.2559 25.2113 22.1288 27.2431C19.7058 31.451 21.5131 37.6352 23.8341 41.0366C24.9953 42.7021 26.3525 44.5626 28.1283 44.4966C29.866 44.4243 30.515 43.3851 32.6126 43.3851C34.6908 43.3851 35.2997 44.4966 37.1115 44.4547C38.9762 44.4243 40.151 42.7817 41.2715 41.1004C42.1059 39.9136 42.7479 38.602 43.1738 37.2141C40.9825 36.2844 39.5191 34.0723 39.5165 31.6857Z" fill="white"/>
<path d="M36.0943 21.5194C37.111 20.2952 37.6118 18.7216 37.4905 17.1328C35.9373 17.2965 34.5025 18.0411 33.472 19.2184C32.4644 20.3687 31.94 21.9146 32.0392 23.4426C33.593 23.4587 35.1206 22.7342 36.0943 21.5194Z" fill="white"/>
<path d="M101.497 24.9528V27.5127H99.8969V29.1914H101.497V34.8955C101.497 36.8432 102.375 37.6223 104.585 37.6223C104.973 37.6223 105.343 37.5759 105.667 37.5203V35.8601C105.389 35.8879 105.214 35.9064 104.908 35.9064C103.919 35.9064 103.485 35.4427 103.485 34.3854V29.1914H105.667V27.5127H103.485V24.9528H101.497Z" fill="white"/>
<path d="M111.296 37.7614C114.237 37.7614 116.04 35.7859 116.04 32.5118C116.04 29.2563 114.227 27.2715 111.296 27.2715C108.356 27.2715 106.544 29.2563 106.544 32.5118C106.544 35.7859 108.347 37.7614 111.296 37.7614ZM111.296 35.9899C109.567 35.9899 108.596 34.7193 108.596 32.5118C108.596 30.323 109.567 29.043 111.296 29.043C113.016 29.043 113.996 30.323 113.996 32.5118C113.996 34.71 113.016 35.9899 111.296 35.9899Z" fill="white"/>
<path d="M117.582 37.5667H119.57V31.6029C119.57 30.1838 120.634 29.2285 122.141 29.2285C122.492 29.2285 123.084 29.2934 123.25 29.3491V27.3828C123.038 27.3272 122.659 27.2993 122.363 27.2993C121.05 27.2993 119.931 28.0228 119.644 29.0152H119.496V27.4663H117.582V37.5667Z" fill="white"/>
<path d="M128.186 28.9688C129.657 28.9688 130.618 29.9983 130.664 31.5843H125.579C125.69 30.0076 126.716 28.9688 128.186 28.9688ZM130.655 34.8398C130.285 35.6282 129.462 36.0641 128.26 36.0641C126.67 36.0641 125.644 34.9419 125.579 33.1704V33.0591H132.689V32.3634C132.689 29.1914 130.997 27.2715 128.196 27.2715C125.357 27.2715 123.554 29.3213 123.554 32.5489C123.554 35.7766 125.32 37.7614 128.205 37.7614C130.507 37.7614 132.116 36.6484 132.569 34.8398H130.655Z" fill="white"/>
<path d="M88.4598 33.8367C88.6131 36.3169 90.6736 37.9031 93.7403 37.9031C97.0179 37.9031 99.0688 36.24 99.0688 33.5868C99.0688 31.5007 97.8996 30.3472 95.0629 29.6839L93.5391 29.3089C91.7374 28.886 91.009 28.3188 91.009 27.3286C91.009 26.0789 92.1399 25.2618 93.8362 25.2618C95.4462 25.2618 96.5579 26.0597 96.7592 27.3382H98.8484C98.7238 25.0022 96.6729 23.3584 93.8649 23.3584C90.8461 23.3584 88.8335 25.0022 88.8335 27.4728C88.8335 29.5108 89.974 30.7221 92.4753 31.3085L94.2578 31.7411C96.0883 32.1737 96.8933 32.8081 96.8933 33.8656C96.8933 35.0961 95.6283 35.9901 93.9033 35.9901C92.0536 35.9901 90.7694 35.1537 90.5873 33.8367H88.4598Z" fill="white"/>
<path d="M67.8665 27.2993C66.498 27.2993 65.3145 27.9857 64.7042 29.1358H64.5563V27.4663H62.6423V40.9242H64.6303V36.0363H64.7875C65.3145 37.1029 66.4518 37.7336 67.885 37.7336C70.4277 37.7336 72.0458 35.7209 72.0458 32.5118C72.0458 29.3027 70.4277 27.2993 67.8665 27.2993ZM67.3025 35.9435C65.6381 35.9435 64.5933 34.6265 64.5933 32.5211C64.5933 30.4064 65.6381 29.0894 67.3117 29.0894C68.9945 29.0894 70.0024 30.3786 70.0024 32.5118C70.0024 34.6543 68.9945 35.9435 67.3025 35.9435Z" fill="white"/>
<path d="M79.0021 27.2993C77.6336 27.2993 76.4501 27.9857 75.8398 29.1358H75.6919V27.4663H73.7779V40.9242H75.7658V36.0363H75.923C76.4501 37.1029 77.5874 37.7336 79.0206 37.7336C81.5633 37.7336 83.1814 35.7209 83.1814 32.5118C83.1814 29.3027 81.5633 27.2993 79.0021 27.2993ZM78.438 35.9435C76.7737 35.9435 75.7289 34.6265 75.7289 32.5211C75.7289 30.4064 76.7737 29.0894 78.4473 29.0894C80.1301 29.0894 81.138 30.3786 81.138 32.5118C81.138 34.6543 80.1301 35.9435 78.438 35.9435Z" fill="white"/>
<path d="M59.0756 37.5667H61.3564L56.3634 23.6949H54.0538L49.0607 37.5667H51.2649L52.5396 33.8848H57.8105L59.0756 37.5667ZM55.0984 26.2135H55.2613L57.2643 32.0775H53.0858L55.0984 26.2135Z" fill="white"/>
</g>
<defs>
<filter id="filter0_d_47_4676" x="0" y="0" width="157.5" height="70" filterUnits="userSpaceOnUse" color-interpolation-filters="sRGB">
<feFlood flood-opacity="0" result="BackgroundImageFix"/>
<feColorMatrix in="SourceAlpha" type="matrix" values="0 0 0 0 0 0 0 0 0 0 0 0 0 0 0 0 0 0 127 0" result="hardAlpha"/>
<feOffset dx="2" dy="4"/>
<feGaussianBlur stdDeviation="5"/>
<feComposite in2="hardAlpha" operator="out"/>
<feColorMatrix type="matrix" values="0 0 0 0 0 0 0 0 0 0 0 0 0 0 0 0 0 0 0.25 0"/>
<feBlend mode="normal" in2="BackgroundImageFix" result="effect1_dropShadow_47_4676"/>
<feBlend mode="normal" in="SourceGraphic" in2="effect1_dropShadow_47_4676" result="shape"/>
</filter>
</defs>
</svg>
