<svg width="90" height="100" viewBox="0 0 90 100" fill="none" xmlns="http://www.w3.org/2000/svg">
<g clip-path="url(#clip0_47_739)">
<rect width="90" height="100" fill="white"/>
<path d="M0 0H90V100H0V0Z" fill="white"/>
<path d="M54.4267 78.7147C54.4267 73.3327 50.5 68.9697 45.6562 68.9697C40.8124 68.9697 36.8848 73.3327 36.8848 78.7147C36.8848 84.0967 40.8124 88.4597 45.6562 88.4597C50.5 88.4597 54.4267 84.0967 54.4267 78.7147Z" fill="#50BAAB"/>
<path d="M45.4202 4.03C57.2372 4.03 69.0542 4.029 80.8721 4.031C83.0537 4.031 84.7097 5.061 85.7537 7.209C86.1524 8.029 86.3621 8.919 86.3612 9.866C86.3585 21.609 86.3648 33.353 86.3549 45.096C86.354 47.19 85.5152 48.854 83.9906 50.034C83.1806 50.661 82.2302 50.973 81.2132 50.97C77.6384 50.96 74.0636 50.966 70.4897 50.968C63.9107 50.972 57.3317 50.98 50.7527 50.974C50.3891 50.974 50.183 51.07 50.0093 51.466C48.9302 53.919 47.8133 56.352 46.7216 58.797C46.4525 59.399 46.0619 59.796 45.4463 59.803C44.8253 59.809 44.4356 59.407 44.1665 58.808C43.0721 56.365 41.9561 53.934 40.877 51.484C40.706 51.097 40.5206 50.973 40.1444 50.973C32.0858 50.984 24.0281 50.983 15.9704 50.981C13.9058 50.981 11.8412 50.946 9.77657 50.973C6.96407 51.01 4.52507 48.431 4.51427 45.173C4.48997 37.813 4.50347 30.452 4.50617 23.091C4.50797 18.726 4.50257 14.361 4.53047 9.996C4.54667 7.451 5.60687 5.597 7.69037 4.518C8.41667 4.142 9.19967 4 10.0151 4C21.8168 4.01 33.6185 4.007 45.4211 4.007L45.4202 4.03ZM45.4094 54.971C45.5237 54.801 45.5759 54.741 45.6074 54.671C46.4381 52.825 47.2904 50.991 48.086 49.125C48.419 48.345 48.9077 47.998 49.6619 47.999C53.2529 48.006 56.843 48.002 60.4331 48.002C67.2587 48.002 74.0852 48.006 80.9117 47.992C81.3311 47.991 81.7883 47.934 82.1627 47.742C83.2436 47.19 83.7215 46.199 83.7197 44.871C83.7044 33.297 83.6837 21.724 83.7134 10.151C83.7179 8.363 82.4777 6.941 80.8262 6.956C73.9547 7.018 67.0823 6.983 60.2099 6.981C43.4294 6.975 26.6489 6.967 9.86927 6.964C9.62537 6.964 9.37157 6.98 9.13937 7.054C7.87397 7.457 7.16207 8.52 7.15847 10.017C7.14767 14.434 7.14407 18.851 7.14227 23.268C7.14047 30.442 7.16747 37.616 7.12427 44.788C7.11257 46.528 8.26727 48.157 10.0961 48.074C11.3876 48.016 12.6827 48.029 13.9769 48.029C21.2192 48.025 28.4606 48.029 35.7029 48.026C37.583 48.026 39.4622 48.011 41.3423 48.002C41.9696 47.999 42.4358 48.308 42.713 48.928C43.2602 50.15 43.7885 51.382 44.3312 52.606C44.6687 53.364 45.0179 54.116 45.4094 54.971ZM45.4643 62.766C53.4527 62.709 59.9606 70.08 59.957 78.825C59.9525 87.872 53.4725 94.918 45.6236 94.999C37.4129 95.085 30.8654 87.826 30.9293 78.712C30.9923 69.902 37.4552 62.728 45.4643 62.766ZM45.4724 92.059C51.9749 92.063 57.3371 86.132 57.3209 78.919C57.3029 71.564 52.0514 65.767 45.5912 65.688C38.8808 65.605 33.5231 71.544 33.569 78.99C33.6122 86.22 38.888 92.053 45.4724 92.059Z" fill="black"/>
<path d="M79.9208 8.99023L81.134 11.9882L75.0896 15.0112C75.5693 15.2422 75.9311 15.4292 76.301 15.5932C77.5934 16.1662 78.893 16.7232 80.1827 17.3042C80.747 17.5582 81.0647 18.0322 81.0665 18.7302C81.0755 20.6462 81.0818 22.5632 81.0908 24.4802C81.0971 25.6372 79.991 26.3642 79.1999 25.8672C79.0064 25.7452 78.7697 25.7102 78.4826 25.6102C78.4691 25.8852 78.4493 26.0972 78.4493 26.3082C78.4475 31.4612 78.4484 36.6142 78.4475 41.7682C78.4475 43.0962 77.9678 43.6352 76.7852 43.6352H56.3543C55.1483 43.6352 54.6938 43.1252 54.6929 41.7722V25.6872C54.5489 25.6872 54.4571 25.6682 54.3734 25.6902C53.0767 26.0197 51.8203 26.5209 50.6312 27.1832C49.9076 27.5902 49.1525 27.9282 48.4109 28.2982C48.6575 28.9122 48.9356 29.4662 49.1003 30.0582C49.2578 30.6232 49.3568 31.2272 49.3748 31.8172C49.4144 33.1672 49.3703 34.5212 49.3955 35.8732C49.4135 36.8772 48.8366 37.5332 47.8664 37.5582C46.4028 37.5887 44.9388 37.5887 43.4753 37.5582C43.1279 37.5532 42.9704 37.6802 42.8291 38.0282C42.2774 39.3822 41.3738 40.2812 40.0616 40.7132C37.8476 41.4422 35.6138 40.1442 34.8308 37.9342C34.7273 37.6412 34.5716 37.5622 34.3097 37.5642C32.9381 37.5742 31.5674 37.5602 30.1967 37.5772C29.9518 37.5841 29.7107 37.6453 29.4875 37.7572C23.3198 40.8222 17.1557 43.8952 10.9907 46.9672C10.8521 47.0352 10.7117 47.0992 10.5128 47.1942L9.29688 44.1982L16.4681 40.6182C15.9857 40.1622 15.4943 39.7682 15.083 39.2882C14.7689 38.9179 14.515 38.4899 14.3324 38.0232C14.1857 37.6462 14.0048 37.5532 13.6727 37.5632C12.9032 37.5822 12.1328 37.5732 11.3624 37.5672C10.3436 37.5582 9.80088 36.9522 9.79997 35.8222C9.79728 33.1862 9.79817 30.5492 9.79997 27.9122C9.79997 26.8702 10.1195 26.4272 11.0258 26.1982C11.6558 26.0382 12.2885 25.8972 12.9095 25.7072C13.0499 25.6642 13.2137 25.4772 13.2569 25.3182C13.7177 23.6192 14.1029 21.8932 14.6132 20.2122C15.4817 17.3492 17.2241 15.4292 19.8296 14.4702C20.8151 14.1082 21.8096 14.0622 22.8248 14.0652C25.352 14.0732 27.8783 14.0552 30.4055 14.0732C33.9371 14.0972 37.0214 16.8012 37.9268 20.5382C38.2895 22.0382 38.5496 23.5692 38.8358 25.0902C38.8898 25.3782 38.9798 25.4882 39.2471 25.5032C40.8923 25.5932 42.5366 25.7012 44.1818 25.8032C44.3348 25.8132 44.5085 25.7812 44.639 25.8482C45.3707 26.2202 45.9989 25.8982 46.6532 25.5622C48.3002 24.7172 49.958 23.8962 51.6212 23.0892C51.9389 22.9352 52.0451 22.7452 52.0352 22.3622C52.01 21.3192 52.0577 20.2722 52.019 19.2302C51.9614 17.6832 52.4924 17.4802 53.3816 17.0802C55.0106 16.3502 56.6459 15.6362 58.2794 14.9182C60.4079 13.9822 62.5364 13.0502 64.6658 12.1132C65.0042 11.9642 65.3498 11.8272 65.6711 11.6412C66.2678 11.2962 66.8402 11.3432 67.445 11.6262C68.5679 12.156 69.7019 12.6561 70.8461 13.1262C71.0855 13.2232 71.4311 13.1902 71.6696 13.0732C74.2616 11.8072 76.841 10.5132 79.4249 9.22623C79.5635 9.15623 79.7048 9.09223 79.9199 8.99123L79.9208 8.99023ZM75.788 40.6642C75.797 40.5042 75.8096 40.3872 75.8096 40.2702C75.8105 35.1182 75.8069 29.9662 75.8186 24.8142C75.8195 24.4502 75.6773 24.2912 75.4127 24.1792C74.915 23.9692 74.4173 23.7612 73.9241 23.5422C71.7245 22.5652 69.5285 21.5772 67.3244 20.6132C67.0094 20.4762 66.6116 20.2962 66.329 20.3982C65.3579 20.7512 64.4228 21.2222 63.4733 21.6452C61.5887 22.4832 59.7059 23.3272 57.8159 24.1492C57.4748 24.2972 57.3155 24.4692 57.3173 24.9162C57.3335 29.9832 57.3272 35.0492 57.329 40.1162C57.329 40.2962 57.3425 40.4772 57.3497 40.6462H61.9469V40.0542C61.9469 37.9142 61.9451 35.7742 61.9469 33.6342C61.9487 32.4312 62.4419 31.8762 63.5129 31.8752C65.546 31.8722 67.5791 31.8722 69.6131 31.8752C70.676 31.8762 71.1899 32.4492 71.1917 33.6342C71.1935 35.7912 71.1917 37.9472 71.1917 40.1042V40.6642H75.788ZM40.355 28.6822L40.3253 28.5172C39.5117 28.4702 38.699 28.4192 37.8863 28.3772C37.1285 28.3372 36.6866 27.9472 36.5291 27.1312C36.3005 25.9442 36.1016 24.7512 35.8613 23.5662C35.6633 22.5842 35.5337 21.5602 35.18 20.6462C34.3385 18.4772 32.8427 17.1162 30.6656 17.0562C27.6785 16.9722 24.6887 16.9962 21.7016 17.0582C20.0564 17.0922 18.8117 18.0632 17.8451 19.5042C17.2223 20.4342 16.9973 21.5372 16.7165 22.6182C16.3259 24.1272 15.9272 25.6332 15.5348 27.1422C15.3449 27.8692 14.9255 28.2912 14.246 28.4182C13.7762 28.5062 13.319 28.6682 12.8483 28.7452C12.5135 28.8002 12.4217 28.9712 12.4253 29.3252C12.4388 30.6432 12.4307 31.9612 12.4307 33.2792C12.4307 34.6172 12.4307 34.6042 13.6565 34.6132C14.0039 34.6162 14.1704 34.4832 14.3045 34.1242C14.8274 32.7192 15.7805 31.7742 17.0756 31.3562C19.3193 30.6302 21.5225 31.9032 22.3631 34.1892C22.4855 34.5202 22.652 34.6132 22.9526 34.6102C24.5708 34.5982 26.1881 34.6282 27.8054 34.5902C28.278 34.5814 28.7446 34.4714 29.1797 34.2662C32.2622 32.7552 35.3312 31.2082 38.4029 29.6712C39.0545 29.3442 39.7052 29.0112 40.355 28.6822ZM68.5106 40.6602V34.8652H64.6199V40.6602H68.5106ZM68.8319 18.1282L78.4232 22.3832C78.4232 21.4882 78.4322 20.7042 78.4133 19.9212C78.4106 19.8132 78.2927 19.6562 78.1955 19.6112C76.3174 18.7524 74.4355 17.9041 72.5498 17.0662C72.2438 16.9302 71.8595 16.6922 71.6048 16.7922C70.7003 17.1482 69.8372 17.6312 68.8319 18.1282ZM67.8392 15.0062C67.4045 14.7932 67.1192 14.6282 66.8186 14.5172C66.6566 14.4629 66.4839 14.4625 66.3218 14.5162C66.0176 14.6212 65.7305 14.7842 65.4335 14.9162C63.7073 15.6902 61.9802 16.4642 60.2522 17.2352C58.481 18.0252 56.708 18.8082 54.9395 19.6052C54.8342 19.6512 54.6902 19.7812 54.6857 19.8802C54.6605 20.4002 54.674 20.9242 54.674 21.5522L67.8392 15.0062ZM41.192 31.9032C42.0299 32.5502 42.5825 33.3042 42.9128 34.2402C43.0172 34.5382 43.1711 34.6102 43.433 34.6062C44.4023 34.5942 45.3725 34.5872 46.3409 34.6092C46.6766 34.6172 46.7684 34.4692 46.7639 34.1302C46.7513 33.3442 46.7675 32.5572 46.7558 31.7712C46.7459 31.1002 46.5155 30.5142 46.1573 29.9772C45.9485 29.6642 45.737 29.6072 45.4121 29.7802C44.6372 30.1952 43.8452 30.5702 43.0604 30.9622L41.192 31.9032ZM38.8637 34.1032C37.8665 34.0992 37.0997 34.9192 37.0835 36.0112C37.0664 37.0722 37.8593 37.9712 38.8178 37.9782C39.0514 37.9809 39.2832 37.932 39.4997 37.8344C39.7162 37.7368 39.9131 37.5924 40.079 37.4096C40.2449 37.2269 40.3765 37.0093 40.4662 36.7696C40.5559 36.5299 40.6019 36.2728 40.6016 36.0132C40.5973 35.5047 40.4124 35.0186 40.087 34.6608C39.7617 34.3031 39.3214 34.1027 38.8637 34.1032ZM18.3122 34.1032C18.0816 34.1028 17.8532 34.1534 17.6403 34.2521C17.4275 34.3508 17.2345 34.4956 17.0725 34.678C16.9106 34.8605 16.783 35.0769 16.6971 35.3147C16.6113 35.5526 16.5689 35.807 16.5725 36.0632C16.5779 37.1432 17.3249 37.9712 18.3014 37.9782C19.3022 37.9852 20.0609 37.1562 20.0645 36.0512C20.0669 35.7948 20.0232 35.5404 19.936 35.303C19.8488 35.0656 19.7198 34.8499 19.5566 34.6685C19.3934 34.4872 19.1993 34.3439 18.9856 34.247C18.7719 34.1501 18.543 34.1006 18.3122 34.1032Z" fill="black"/>
<path d="M26.0378 28.3985L18.7361 28.3975C17.2583 28.3965 16.7417 27.5725 17.2151 26.0145C17.5985 24.7545 17.9531 23.4825 18.3284 22.2195C19.0205 19.8895 20.4677 18.6455 22.6817 18.6295C25.2989 18.6095 27.9179 18.6175 30.5351 18.6945C32.1965 18.7425 33.8399 20.2945 34.2161 22.0995C34.5329 23.6135 34.7813 25.1465 35.0261 26.6775C35.1755 27.6055 34.5527 28.3775 33.6635 28.3915C32.3387 28.4115 31.0139 28.3975 29.6891 28.3985H26.0378ZM20.168 25.4685C21.8222 25.4685 23.3612 25.4655 24.8993 25.4705C25.2053 25.4715 25.1963 25.2425 25.1954 25.0165C25.1909 24.0065 25.1747 22.9965 25.1792 21.9875C25.181 21.6505 25.0532 21.5345 24.7634 21.5385C24.0551 21.5495 23.3459 21.5335 22.6376 21.5485C22.0031 21.5625 21.4559 21.8055 21.1202 22.4375C20.9735 22.7125 20.8844 23.0285 20.7917 23.3345C20.5865 24.0075 20.3957 24.6845 20.168 25.4685ZM32.1785 25.4665C31.976 24.4675 31.85 23.5565 31.5962 22.6915C31.4045 22.0415 30.8969 21.6475 30.2678 21.5955C29.5788 21.5434 28.8878 21.5324 28.1978 21.5625C28.0745 21.5665 27.8585 21.8125 27.8558 21.9525C27.8366 23.0104 27.8414 24.0688 27.8702 25.1265C27.8729 25.2425 28.0304 25.4505 28.1177 25.4515C29.42 25.4735 30.7223 25.4665 32.1785 25.4665ZM47.3804 87.6435C47.2889 87.6431 47.198 87.6262 47.1113 87.5935C47.0346 87.5663 46.9597 87.5332 46.8872 87.4945L46.619 87.3445L40.571 82.0185C40.4934 81.9735 40.4182 81.9234 40.346 81.8685C40.2799 81.7566 40.2201 81.6404 40.1669 81.5205C40.1042 81.414 40.0585 81.2962 40.0319 81.1725C40.0025 81.042 39.9877 80.908 39.9878 80.7735C39.9878 80.5085 40.0175 80.2765 40.0778 80.0775C40.1678 79.8775 40.301 79.6955 40.481 79.5295C40.6304 79.3635 40.7789 79.2475 40.9283 79.1805C41.1083 79.1145 41.3018 79.0805 41.5106 79.0805H44.558C45.4238 79.0805 46.0214 78.8655 46.349 78.4345C46.709 78.0025 46.9178 77.6875 46.9772 77.4885H40.8392C40.6592 77.4885 40.4954 77.4555 40.346 77.3885C40.1947 77.3208 40.0575 77.2193 39.9428 77.0905C39.8265 76.9631 39.7349 76.8107 39.6737 76.6425C39.6123 76.4679 39.5818 76.2818 39.5837 76.0945C39.5837 75.9285 39.6143 75.7625 39.6737 75.5965C39.734 75.4305 39.8231 75.2815 39.9437 75.1485C40.0625 75.0165 40.1966 74.9165 40.346 74.8505C40.4954 74.7505 40.6601 74.7005 40.8392 74.7005L46.8422 74.7505C46.6712 74.4944 46.492 74.2452 46.3049 74.0035C46.0358 73.5725 45.4535 73.3565 44.558 73.3565L40.8392 73.2565L40.436 73.2065C40.1991 73.1418 39.9919 72.9828 39.8537 72.7595C39.7084 72.5397 39.6155 72.2828 39.5837 72.0125V71.6145C39.6143 71.4815 39.6593 71.3645 39.7187 71.2655C39.779 71.1335 39.8537 71.0165 39.9437 70.9175C40.0625 70.7515 40.1966 70.6355 40.346 70.5685C40.4954 70.5025 40.6601 70.4685 40.8392 70.4685H49.6655C49.8446 70.4685 50.0084 70.5025 50.1578 70.5685C50.3072 70.6355 50.4422 70.7345 50.561 70.8675C50.6807 71.0005 50.7707 71.1495 50.831 71.3155C50.8895 71.4815 50.9201 71.6635 50.9201 71.8635C50.9201 72.0295 50.8895 72.2115 50.8301 72.4105C50.7689 72.5787 50.6773 72.7311 50.561 72.8585C50.4464 72.9877 50.3092 73.0895 50.1578 73.1575C50.001 73.2255 49.8338 73.2595 49.6655 73.2575H48.9482C49.0382 73.4565 49.1579 73.7045 49.3064 74.0035C49.4864 74.2695 49.6052 74.5014 49.6655 74.7005H49.8896C50.0687 74.7005 50.1875 74.7505 50.2478 74.8505C50.3378 74.9165 50.4422 75.0155 50.561 75.1485C50.674 75.272 50.7638 75.4192 50.8253 75.5816C50.8868 75.744 50.9187 75.9183 50.9192 76.0945C50.9192 76.2945 50.8895 76.4765 50.8301 76.6425C50.7689 76.8107 50.6773 76.9631 50.561 77.0905C50.4463 77.2193 50.3091 77.3208 50.1578 77.3885C50.0084 77.4555 49.8446 77.4885 49.6655 77.4885H49.5755C49.4855 78.1185 49.3073 78.6495 49.0382 79.0815C48.7988 79.4795 48.4712 79.8775 48.0527 80.2765C47.5942 80.7928 47.0453 81.1991 46.4399 81.4705C45.8431 81.7425 45.203 81.8782 44.558 81.8695H44.423L48.1418 85.1045C48.2318 85.2045 48.2912 85.2875 48.3218 85.3545C48.3757 85.4121 48.421 85.4789 48.4559 85.5525C48.5153 85.6525 48.5603 85.7685 48.59 85.9015C48.6197 86.0015 48.635 86.1175 48.635 86.2495C48.635 86.4155 48.6053 86.5985 48.545 86.7975C48.4838 86.9657 48.3922 87.1182 48.2759 87.2455C48.1616 87.3746 48.0247 87.4763 47.8736 87.5445C47.7242 87.6105 47.5595 87.6435 47.3804 87.6435Z" fill="black"/>
<path fill-rule="evenodd" clip-rule="evenodd" d="M7.64844 43.981L80.9633 7.49805L82.6184 11.604L9.30264 48.086L7.64844 43.981Z" fill="#50BAAB"/>
</g>
<defs>
<clipPath id="clip0_47_739">
<rect width="90" height="100" fill="white"/>
</clipPath>
</defs>
</svg>
