<svg width="100" height="100" viewBox="0 0 100 100" fill="none" xmlns="http://www.w3.org/2000/svg">
<g clip-path="url(#clip0_47_674)">
<path d="M66.8332 32.9439C66.8332 25.5209 60.8152 19.5029 53.3922 19.5029C45.9692 19.5029 39.9512 25.5199 39.9512 32.9439C39.9512 40.3679 45.9692 46.3849 53.3912 46.3849C60.8132 46.3849 66.8332 40.3669 66.8332 32.9439Z" fill="#50BAAB"/>
<path d="M71.991 69.4719C74.749 68.3299 77.346 67.2009 79.983 66.1749C83.767 64.7029 87.51 63.0429 91.741 63.3929C95.741 63.7239 98.867 67.1749 98.55 71.0969C98.345 73.6309 96.762 75.3789 94.737 76.6219C91.7959 78.4375 88.7824 80.1333 85.704 81.7049C78.681 85.2689 71.58 88.6749 64.55 92.2249C59.912 94.5649 55.057 95.2529 49.905 94.9219C43.361 94.4999 36.981 93.2759 30.641 91.6999C29.032 91.2999 27.368 91.1239 25.727 90.8599C23.274 90.4629 21.314 91.5409 19.437 92.9339C16.428 95.1669 15.772 95.1899 12.779 92.9329C8.07598 89.3849 5.46198 84.4359 3.66098 78.9829C2.61704 75.8551 2.24027 72.5432 2.55498 69.2609C2.73498 67.3659 3.16698 67.1009 4.95698 66.4859C10.037 64.7359 15.079 62.8739 20.131 61.0459C26.159 58.8629 32.341 57.5919 38.774 58.1879C40.621 58.3599 42.532 58.7599 44.225 59.4909C49.017 61.5609 53.855 61.6679 58.898 60.7009C61.0874 60.2876 63.3285 60.2235 65.538 60.5109C69.401 61.0229 71.911 64.1939 71.992 68.1129C72 68.4989 71.991 68.8849 71.991 69.4719ZM50.486 91.3219C56.931 91.3219 58.5 91.0359 62.636 88.9949C71.1885 84.779 79.7173 80.5152 88.222 76.2039C90.044 75.2789 91.819 74.1819 93.415 72.9139C95.573 71.1969 95.375 69.1829 93.055 67.6819C92.532 67.3419 91.801 67.0569 91.215 67.1309C89.234 67.3789 87.161 67.5039 85.33 68.2099C79.215 70.5669 73.203 73.1879 67.126 75.6429C64.212 76.8199 61.303 78.0979 58.276 78.8859C54.561 79.8559 50.789 79.0319 47.084 78.3439C46.069 78.1559 45.69 77.2799 45.805 76.3269C45.915 75.4259 46.479 74.7369 47.449 74.7619C48.492 74.7899 49.544 74.9399 50.566 75.1599C56.254 76.3799 61.294 74.6439 66.024 71.7099C67.988 70.4899 68.554 68.7689 67.997 66.8759C67.451 65.0259 65.971 63.9119 63.66 63.9709C61.66 64.0219 59.638 64.2209 57.679 64.6199C53.361 65.4959 49.189 65.2629 45.056 63.6779C43.146 62.9449 41.172 62.2109 39.164 61.9329C33.407 61.1349 27.822 62.2759 22.401 64.1229C17.399 65.8259 12.488 67.7959 7.51098 69.5769C6.58898 69.9069 6.22098 70.2769 6.21898 71.3049C6.20898 75.7739 7.58898 79.8349 9.69898 83.6819C11.058 86.1589 12.784 88.3519 15.105 90.0269C15.808 90.5349 16.327 90.5939 17.172 90.0569C18.848 88.9899 20.609 87.8279 22.495 87.3729C25.795 86.5779 29.114 87.4179 32.335 88.2879C38.869 90.0519 45.49 91.1949 50.486 91.3219Z" fill="black"/>
<path d="M15.6435 50.7712C17.0075 48.8512 18.3665 46.9292 19.7395 45.0152C19.9925 44.6632 20.2525 44.1332 20.5895 44.0632C21.2995 43.9132 22.2215 43.7562 22.7535 44.0892C23.2025 44.3692 23.4455 45.3602 23.3705 45.9892C23.2955 46.6192 22.7525 47.2152 22.3505 47.7802C20.2937 50.6696 18.2187 53.546 16.1255 56.4092C15.0225 57.9142 14.1865 58.0272 12.7055 56.9792C9.52551 54.7272 6.34351 52.4762 3.16651 50.2172C2.00051 49.3872 1.68851 48.3212 2.32151 47.4232C3.01451 46.4392 4.10051 46.3182 5.31651 47.1612C7.00651 48.3342 8.66451 49.5552 10.3435 50.7452C10.6835 50.9862 11.0555 51.1822 11.6765 51.5592C11.5485 50.7272 11.4725 50.1842 11.3805 49.6432C9.66851 39.5732 11.4025 30.1132 16.4505 21.2582C21.0785 13.1402 27.7555 7.23016 36.2965 3.56616C46.3105 -0.728842 56.5625 -1.17484 66.9265 2.40016C77.3855 6.00516 85.3115 12.7102 90.4875 22.4062C96.5525 33.7652 97.2235 45.6302 92.7455 57.7422C92.2735 59.0212 91.2455 59.5732 90.2035 59.1562C89.1195 58.7232 88.7635 57.6462 89.2965 56.2662C91.0205 51.8012 91.9645 47.1672 91.8545 42.3922C91.5805 30.5022 87.0615 20.5722 77.9585 12.7842C66.3245 2.83016 48.8725 0.876158 35.3605 8.11016C23.5075 14.4562 16.7335 24.4092 14.7505 37.6172C14.0985 41.9602 14.3405 46.3402 15.6445 50.7722L15.6435 50.7712Z" fill="black"/>
<path d="M53.1624 55.5935C40.8454 55.5605 31.0024 45.5815 31.0294 33.1555C31.0554 21.0775 41.2064 11.0505 53.3404 11.1155C65.5844 11.1815 75.5164 21.2125 75.4604 33.4535C75.4034 45.7335 65.4384 55.6275 53.1624 55.5935ZM71.7584 33.4356C71.8594 23.3686 63.5184 14.9205 53.3824 14.8275C43.1844 14.7335 34.8844 22.9746 34.7724 33.3046C34.6624 43.3965 42.8514 51.7475 52.9894 51.8835C63.2644 52.0205 71.6544 43.7736 71.7584 33.4356Z" fill="black"/>
<path d="M55.8079 43.0759C55.7029 43.0759 55.5979 43.0579 55.4929 43.0229C55.3879 42.9879 55.3009 42.9529 55.2309 42.9179L54.9159 42.7609L47.8279 37.1429C47.7371 37.0955 47.6493 37.0428 47.5649 36.9849C47.4874 36.867 47.4173 36.7445 47.3549 36.6179C47.2814 36.5053 47.2279 36.3808 47.1969 36.2499C47.1624 36.1126 47.1449 35.9715 47.1449 35.8299C47.1449 35.5499 47.1799 35.3049 47.2499 35.0949C47.3656 34.8715 47.5267 34.6746 47.7229 34.5169C47.8713 34.3605 48.0499 34.2356 48.2479 34.1499C48.4579 34.0799 48.6849 34.0449 48.9299 34.0449H52.4999C53.5159 34.0449 54.2159 33.8169 54.5999 33.3619C55.0199 32.9069 55.2659 32.5749 55.3359 32.3649H48.1429C47.9329 32.3649 47.7399 32.3299 47.5649 32.2599C47.3899 32.1899 47.2319 32.0849 47.0919 31.9449C46.9519 31.8049 46.8469 31.6469 46.7769 31.4719C46.7069 31.2969 46.6719 31.1049 46.6719 30.8949C46.6719 30.7199 46.7069 30.5449 46.7769 30.3689C46.8469 30.1929 46.9519 30.0369 47.0919 29.8969C47.2319 29.7569 47.3899 29.6519 47.5649 29.5819C47.7399 29.4769 47.9329 29.4239 48.1429 29.4239L55.1779 29.4769C55.1079 29.3719 54.8979 29.1089 54.5479 28.6889C54.2329 28.2339 53.5509 28.0069 52.4999 28.0069L48.1429 27.9019L47.6699 27.8489C47.392 27.7807 47.1489 27.6127 46.9869 27.3769C46.8171 27.1451 46.7087 26.874 46.6719 26.5889V26.1689C46.7069 26.0289 46.7599 25.9069 46.8299 25.8019C46.8999 25.6619 46.9869 25.5389 47.0919 25.4339C47.2319 25.2589 47.3899 25.1359 47.5649 25.0659C47.7399 24.9959 47.9329 24.9609 48.1429 24.9609H58.4859C58.6959 24.9609 58.8889 24.9959 59.0639 25.0659C59.2389 25.1359 59.3959 25.2419 59.5359 25.3819C59.6759 25.5219 59.7809 25.6789 59.8509 25.8539C59.9209 26.0289 59.9559 26.2219 59.9559 26.4319C59.9559 26.6069 59.9209 26.7989 59.8509 27.0089C59.7809 27.1839 59.6759 27.3419 59.5359 27.4819C59.3959 27.6219 59.2389 27.7269 59.0639 27.7969C58.8889 27.8669 58.6959 27.9019 58.4859 27.9019H57.6459C57.7509 28.1119 57.8909 28.3739 58.0659 28.6889C58.2759 28.9689 58.4159 29.2139 58.4859 29.4239H58.7489C58.9589 29.4239 59.0989 29.4769 59.1689 29.5819C59.2739 29.6519 59.3959 29.7569 59.5359 29.8969C59.6684 30.0272 59.7738 30.1825 59.8459 30.3539C59.918 30.5252 59.9554 30.7091 59.9559 30.8949C59.9559 31.1049 59.9209 31.2969 59.8509 31.4719C59.7809 31.6469 59.6759 31.8049 59.5359 31.9449C59.3959 32.0849 59.2389 32.1899 59.0639 32.2599C58.8889 32.3299 58.6959 32.3649 58.4859 32.3649H58.3809C58.2759 33.0299 58.0659 33.5899 57.7509 34.0449C57.4709 34.4649 57.0859 34.8849 56.5959 35.3049C56.0359 35.8649 55.4059 36.2849 54.7059 36.5649C54.0409 36.8449 53.3059 36.9849 52.4999 36.9849H52.3429L56.7009 40.3979C56.8059 40.5029 56.8759 40.5899 56.9109 40.6599C56.9809 40.7299 57.0329 40.7999 57.0679 40.8699C57.1379 40.9749 57.1909 41.0979 57.2259 41.2379C57.2609 41.3429 57.2779 41.4649 57.2779 41.6059C57.2779 41.7809 57.2429 41.9729 57.1729 42.1829C57.1029 42.3579 56.9979 42.5159 56.8579 42.6559C56.7179 42.7959 56.5609 42.9009 56.3859 42.9709C56.2109 43.0409 56.0179 43.0759 55.8079 43.0759Z" fill="black"/>
</g>
<defs>
<clipPath id="clip0_47_674">
<rect width="100" height="100" fill="white"/>
</clipPath>
</defs>
</svg>
