<svg width="100" height="100" viewBox="0 0 100 100" fill="none" xmlns="http://www.w3.org/2000/svg">
<g clip-path="url(#clip0_47_703)">
<rect width="100" height="100" fill="white"/>
<mask id="mask0_47_703" style="mask-type:luminance" maskUnits="userSpaceOnUse" x="0" y="0" width="100" height="100">
<path d="M0 0H100V100H0V0Z" fill="white"/>
</mask>
<g mask="url(#mask0_47_703)">
<path d="M0 0H100V100H0V0Z" fill="white"/>
<mask id="mask1_47_703" style="mask-type:luminance" maskUnits="userSpaceOnUse" x="-7" y="18" width="106" height="64">
<path d="M-7 18H98.172V81.654H-7V18Z" fill="white"/>
</mask>
<g mask="url(#mask1_47_703)">
<path d="M82.8634 49.2925C82.8634 40.2825 75.5594 32.9775 66.5484 32.9775C57.5374 32.9775 50.2344 40.2825 50.2344 49.2925C50.2344 58.3025 57.5384 65.6075 66.5484 65.6075C75.5584 65.6075 82.8634 58.3025 82.8634 49.2925Z" fill="#50BAAB"/>
<path d="M64.9449 81.6542C59.1439 81.6042 49.9509 78.5322 43.7749 72.3572C37.5689 66.1522 34.4669 58.5542 34.4609 49.7692C34.4569 41.8992 37.0109 34.9052 42.2079 28.9862C48.5859 21.7202 56.6609 18.0302 66.3619 18.0002C75.1239 17.9732 82.6679 21.1192 88.8219 27.2342C95.0489 33.4202 98.1899 41.1012 98.1719 49.8872C98.1539 58.6292 95.0339 66.2732 88.8159 72.4272C82.6209 78.5572 76.6919 81.6862 64.9449 81.6542ZM66.2969 22.1822C50.9849 22.3272 38.6839 34.5342 38.7039 49.8772C38.7229 65.1132 51.1119 77.4732 66.3539 77.4172C81.7319 77.3602 93.9739 65.1232 93.9319 49.8292C93.8889 34.1972 81.5189 22.3512 66.2969 22.1822ZM12.6739 38.1432C18.3739 38.1432 24.0739 38.1472 29.7739 38.1382C30.3849 38.1372 30.9839 38.2302 31.4469 38.6032C32.0989 39.1282 32.4469 39.8232 32.1989 40.7232C31.8969 41.8212 31.2839 42.2582 29.9279 42.3632C29.7239 42.3782 29.5179 42.3712 29.3119 42.3712C18.1489 42.3712 15.3329 42.3732 4.16988 42.3682C3.69788 42.3682 3.18288 42.4202 2.76688 42.2522C2.34188 42.0822 1.91688 41.7332 1.66488 41.3492C1.21488 40.6672 1.27488 39.8972 1.64888 39.1692C2.06488 38.3572 2.81488 38.1762 3.63688 38.1472C3.82688 38.1402 4.01688 38.1432 4.20588 38.1432H12.6739ZM16.8599 54.0512H8.50688C7.28688 54.0502 6.57688 53.4862 6.31788 52.3092C6.12788 51.4462 6.62188 50.3122 7.53188 50.0462C7.91388 49.9342 8.31188 49.8122 8.70288 49.8112C17.4019 49.7982 21.2859 49.8092 29.9849 49.7932C31.3449 49.7912 32.4479 50.8792 32.2799 52.2572C32.1819 53.0612 31.2599 54.0672 30.2619 54.0612C25.7949 54.0342 21.3269 54.0502 16.8589 54.0502L16.8599 54.0512ZM23.2599 61.5802C26.2279 61.5802 29.1949 61.5772 32.1609 61.5822C33.4289 61.5842 34.0099 62.0322 34.3849 63.2202C34.6389 64.0252 34.0199 65.3772 33.0579 65.6082C32.6219 65.7122 32.1679 65.7982 31.7239 65.7982C25.9789 65.8112 20.2349 65.8082 14.4909 65.8062C13.1639 65.8062 12.3749 65.1532 12.0889 63.9122C11.9209 63.1852 12.6019 61.6522 13.7929 61.6072C14.6439 61.5742 15.4969 61.5822 16.3489 61.5812C18.6529 61.5782 20.9559 61.5802 23.2599 61.5802Z" fill="black"/>
<path d="M68.4436 40.6176C68.4436 42.7166 68.4546 44.8156 68.4346 46.9146C68.4306 47.3246 68.5526 47.6476 68.8156 47.9316C69.9196 49.1206 69.5406 51.4316 68.2656 52.3066C67.7046 52.6926 67.1596 52.8866 66.5176 52.9846C66.2506 53.0246 65.9666 53.2116 65.7676 53.4106C61.6246 57.5506 57.4976 61.7096 53.3486 65.8456C52.9366 66.2556 52.4786 66.6376 51.8426 66.7556C50.4756 67.0086 49.2786 65.9626 49.3256 64.6276C49.3456 64.0106 49.6286 63.5576 50.0276 63.1576C54.3026 58.8716 58.5856 54.5916 62.8576 50.3026C62.9896 50.1716 63.1186 49.9616 63.1186 49.7876C63.1166 48.9206 63.5216 48.2406 64.0146 47.5756C64.1486 47.3956 64.1976 47.1136 64.1986 46.8786C64.2086 42.6016 64.2096 38.3246 64.2026 34.0476C64.2016 33.1026 64.5756 32.3866 65.4306 31.9736C66.1776 31.6136 67.2836 31.7716 67.8906 32.5236C68.3296 33.0666 68.4336 33.6766 68.4386 34.3196C68.4536 36.4196 68.4446 38.5176 68.4446 40.6166L68.4436 40.6176Z" fill="black"/>
</g>
</g>
</g>
<defs>
<clipPath id="clip0_47_703">
<rect width="100" height="100" fill="white"/>
</clipPath>
</defs>
</svg>
