<svg width="100" height="100" viewBox="0 0 100 100" fill="none" xmlns="http://www.w3.org/2000/svg">
<g clip-path="url(#clip0_47_687)">
<rect width="100" height="100" fill="white"/>
<path d="M0 0H100V100H0V0Z" fill="white"/>
<mask id="mask0_47_687" style="mask-type:luminance" maskUnits="userSpaceOnUse" x="8" y="0" width="91" height="95">
<path d="M8 0H99V95H8V0Z" fill="white"/>
</mask>
<g mask="url(#mask0_47_687)">
<path d="M70.5789 76.5849C70.5789 75.1169 69.9957 73.7091 68.9577 72.6711C67.9197 71.6331 66.5119 71.0499 65.0439 71.0499C63.5759 71.0499 62.1681 71.6331 61.1301 72.6711C60.092 73.7091 59.5089 75.1169 59.5089 76.5849C59.5089 78.0529 60.092 79.4607 61.1301 80.4987C62.1681 81.5368 63.5759 82.1199 65.0439 82.1199C66.5119 82.1199 67.9197 81.5368 68.9577 80.4987C69.9957 79.4607 70.5789 78.0529 70.5789 76.5849ZM52.6579 58.6639C52.6579 57.1959 52.0747 55.7881 51.0367 54.7501C49.9987 53.7121 48.5909 53.1289 47.1229 53.1289C45.6549 53.1289 44.2471 53.7121 43.2091 54.7501C42.171 55.7881 41.5879 57.1959 41.5879 58.6639C41.5879 60.1319 42.171 61.5397 43.2091 62.5777C44.2471 63.6158 45.6549 64.1989 47.1229 64.1989C48.5909 64.1989 49.9987 63.6158 51.0367 62.5777C52.0747 61.5397 52.6579 60.1319 52.6579 58.6639Z" fill="#50BAAB"/>
<path d="M7.94789 25.4885H11.3569C11.4029 25.8525 11.5099 26.1645 11.4689 26.4555C11.0229 29.6455 12.9689 31.3105 15.4119 32.6335C18.6479 34.3855 22.1859 35.1715 25.7939 35.5315C31.4499 36.0955 37.0669 35.7765 42.4129 33.6725C44.2029 32.9685 45.8429 31.8165 47.4319 30.6965C48.4949 29.9465 48.8859 28.7235 48.8369 27.3745C48.7849 25.9605 48.8249 24.5425 48.8249 22.9915C48.4529 23.0945 48.2249 23.1045 48.0589 23.2115C44.1769 25.7195 39.8479 26.8815 35.3189 27.3575C28.7559 28.0475 22.2709 27.7135 16.0839 25.1935C14.2899 24.4635 12.5289 23.4665 11.0169 22.2605C6.85589 18.9395 6.81589 14.1915 10.8019 10.6645C13.8079 8.00451 17.4949 6.75251 21.3279 5.97951C28.4049 4.55251 35.4479 4.74951 42.3789 6.90151C45.1749 7.76951 47.7839 9.02051 49.9119 11.0995C51.4079 12.5605 52.3469 14.2955 52.3489 16.4355C52.3569 23.0935 52.3509 29.7515 52.3459 36.4095C52.3459 36.6715 52.2919 36.9335 52.2529 37.2955H48.9359L48.7259 34.8095C36.3219 40.9945 24.0289 40.9635 11.6879 34.9165C10.3129 38.8645 11.5059 42.2135 15.2259 44.2665C19.1879 46.4515 23.5309 47.1815 27.9839 47.4165C30.1489 47.5315 30.0199 47.0565 30.0249 49.5715V51.0675C23.4309 51.0775 17.2779 49.9185 11.5639 46.3375C11.5639 48.4255 11.2739 50.3505 11.6679 52.1235C11.9249 53.2785 13.0049 54.4435 14.0189 55.1985C16.7629 57.2415 20.0469 58.0165 23.3589 58.6185C24.0589 58.7465 24.7669 58.8425 25.6709 58.9845L25.3659 62.4795C20.3909 62.0755 15.8889 60.7245 11.7739 58.0985C10.3959 62.8425 11.4139 65.7025 15.4839 67.9095C19.6929 70.1915 24.3119 70.8935 29.2069 70.9955C29.2069 70.3365 29.2329 69.7795 29.2039 69.2255C28.8539 62.5455 30.6209 56.5065 34.6629 51.1575C35.5409 49.9945 36.6239 49.7315 37.4979 50.4215C38.3449 51.0915 38.3479 52.1215 37.5279 53.2725C32.2279 60.7135 31.2019 68.6805 34.7819 77.1135C38.6679 86.2685 48.6269 92.0025 58.4999 90.9015C71.2699 89.4775 80.3569 78.8685 79.7039 66.1435C79.1519 55.3825 70.5239 45.9775 59.7689 44.3825C54.2109 43.5585 49.0419 44.6135 44.1519 47.3545C43.5229 47.7065 42.5129 47.7205 41.8199 47.4835C41.4309 47.3505 41.0799 46.3375 41.1689 45.7965C41.2589 45.2465 41.8129 44.6285 42.3299 44.3115C53.9789 37.1645 69.8449 40.3555 77.9089 51.4315C88.2189 65.5935 83.1389 85.0615 67.2349 92.3305C55.8429 97.5365 41.6899 93.8335 34.4799 83.5725C32.8349 81.2315 31.7059 78.5065 30.5119 75.8795C30.1199 75.0195 29.8129 74.6195 28.8369 74.6065C24.7479 74.5485 20.7399 73.9285 16.8929 72.4995C13.7119 71.3175 10.6999 69.8155 8.93089 66.7295C8.37489 65.7585 7.94989 64.5535 7.94289 63.4525C7.86489 50.9865 7.87989 38.5205 7.87289 26.0545C7.87289 25.9225 7.90589 25.7895 7.94789 25.4885ZM29.6509 24.0935C34.0179 24.0335 37.9049 23.5765 41.6609 22.3045C43.9149 21.5405 46.0739 20.5725 47.7119 18.7595C49.1459 17.1735 49.3049 15.5245 47.7449 14.1545C46.2369 12.8305 44.4719 11.6615 42.6249 10.8895C37.5849 8.78151 32.2289 8.43251 26.8449 8.82551C22.7779 9.12251 18.7899 9.94351 15.1799 11.9705C13.4679 12.9325 11.6299 14.0175 11.5399 16.2605C11.4499 18.5525 13.2569 19.6745 14.9709 20.6605C19.6439 23.3485 24.8169 23.9105 29.6509 24.0935Z" fill="black"/>
<path d="M82.2857 21.7764V20.1134C82.2857 15.7814 82.2837 11.4494 82.2867 7.11639C82.2877 5.06639 82.7967 4.28639 84.1127 4.30239C85.4127 4.31839 85.8557 5.05039 85.8567 7.17839C85.8567 10.3944 85.8957 13.6104 85.8367 16.8254C85.8167 17.8854 86.1637 18.2354 87.2107 18.1904C88.9047 18.1184 90.6037 18.1454 92.3007 18.1704C94.0807 18.1974 95.5937 18.7854 96.2267 20.5994C96.8627 22.4214 96.5867 24.1234 95.1697 25.5464C89.8437 30.8914 84.5287 36.2464 79.1907 41.5794C77.0337 43.7344 74.3427 43.7784 72.1847 41.6434C66.7946 36.2995 61.4236 30.9365 56.0717 25.5544C54.6117 24.0884 54.4627 22.3214 55.1987 20.4704C55.9087 18.6804 57.3787 18.1304 59.1857 18.1684C60.6137 18.1984 62.0457 18.1264 63.4727 18.1894C64.4927 18.2344 64.9197 17.9264 64.8657 16.8344C64.7837 15.1864 64.8297 13.5304 64.8507 11.8784C64.8677 10.4384 65.5097 9.66539 66.6187 9.67739C67.7187 9.68939 68.3467 10.4674 68.3547 11.9154C68.3717 14.7294 68.3157 17.5444 68.3847 20.3564C68.4107 21.4444 68.1247 21.8474 66.9787 21.8084C64.5257 21.7254 62.0677 21.7614 59.6117 21.7964C59.2177 21.8014 58.8267 22.0504 58.4347 22.1864C58.6077 22.5664 58.6907 23.0354 58.9667 23.3134C64.1517 28.5434 69.3607 33.7504 74.5627 38.9644C75.3007 39.7044 75.9987 39.7214 76.7547 38.9594C81.9427 33.7314 87.1467 28.5184 92.3257 23.2814C92.6087 22.9954 92.7207 22.5414 92.9127 22.1664C92.5157 22.0364 92.1177 21.7984 91.7187 21.7954C88.6447 21.7634 85.5707 21.7774 82.2857 21.7774V21.7764ZM47.6187 82.2244C46.9507 81.6804 46.2167 81.3774 46.0927 80.9124C45.9227 80.2724 45.9897 79.3644 46.3407 78.8194C48.1267 76.0464 50.0317 73.3494 51.9027 70.6314C55.5167 65.3774 59.1337 60.1274 62.7497 54.8754L63.2077 54.2154C63.8547 53.2724 64.7027 52.9304 65.7317 53.5294C66.6757 54.0794 66.8457 55.1674 66.1477 56.2134C64.4598 58.7325 62.7544 61.2399 61.0317 63.7354C57.1377 69.3934 53.2457 75.0534 49.3157 80.6874C48.9187 81.2574 48.2667 81.6474 47.6187 82.2244ZM64.6317 83.2684C60.9947 83.2544 57.9817 80.2334 57.9967 76.6134C58.0117 73.0124 61.0927 69.9404 64.6687 69.9624C68.2837 69.9844 71.2987 73.0344 71.2877 76.6574C71.2805 78.4164 70.5754 80.1007 69.3271 81.3401C68.0789 82.5795 66.3897 83.2727 64.6307 83.2674L64.6317 83.2684ZM67.6947 76.6484C67.6966 76.2472 67.6185 75.8497 67.4651 75.4791C67.3116 75.1084 67.0859 74.772 66.801 74.4896C66.5162 74.2071 66.1779 73.9843 65.8059 73.834C65.434 73.6837 65.0358 73.6091 64.6347 73.6144C63.0117 73.6194 61.6567 74.9464 61.6297 76.5574C61.5997 78.3064 62.8697 79.6184 64.6057 79.6324C66.3397 79.6464 67.6927 78.3394 67.6947 76.6484ZM54.4057 58.4234C54.4167 62.1364 51.5137 65.0654 47.8157 65.0714C44.1287 65.0774 41.2127 62.1674 41.1877 58.4554C41.1627 54.7674 43.9747 51.9194 47.6677 51.8934C51.3527 51.8664 54.3937 54.8134 54.4057 58.4234ZM47.8507 61.4254C49.5297 61.4074 50.8307 60.1254 50.8477 58.4754C50.8637 56.9214 49.3357 55.4454 47.7167 55.4524C46.0817 55.4584 44.7497 56.8054 44.7527 58.4504C44.7557 60.1634 46.0897 61.4444 47.8507 61.4254ZM64.8507 -0.0936141C64.8497 -1.38961 64.8347 -2.68361 64.8537 -3.97961C64.8697 -5.11461 65.3467 -5.87761 66.5917 -5.90561C67.6837 -5.92961 68.3307 -5.27361 68.3477 -4.00061C68.3837 -1.41061 68.3847 1.18139 68.3447 3.77139C68.3257 4.98139 67.5867 5.70739 66.5367 5.64539C65.3967 5.57839 64.8717 4.88739 64.8557 3.79139C64.8367 2.49639 64.8517 1.20239 64.8507 -0.0936141Z" fill="black"/>
<path d="M70.3146 24.1381V5.95312H79.8026V24.1381H86.6556L75.0586 35.4711L63.7266 24.1381H70.3146Z" fill="#50BAAB"/>
</g>
</g>
<defs>
<clipPath id="clip0_47_687">
<rect width="100" height="100" fill="white"/>
</clipPath>
</defs>
</svg>
