<svg width="159" height="70" viewBox="0 0 159 70" fill="none" xmlns="http://www.w3.org/2000/svg">
<g filter="url(#filter0_d_47_4678)">
<path d="M8.5 14C8.5 9.58172 12.0817 6 16.5 6H138.5C142.918 6 146.5 9.58172 146.5 14V48C146.5 52.4183 142.918 56 138.5 56H16.5C12.0817 56 8.5 52.4183 8.5 48V14Z" fill="white"/>
<path d="M22.2718 18.6612C21.9741 18.9692 21.7981 19.4472 21.7981 20.0662V42.1822C21.7981 42.8022 21.9741 43.2792 22.2718 43.5872L22.3475 43.6592L35.0206 31.2702V30.9782L22.3475 18.5882L22.2718 18.6612Z" fill="url(#paint0_linear_47_4678)"/>
<path d="M39.244 35.4007L35.0206 31.2702V30.9782L39.245 26.8477L39.3401 26.9007L44.3453 29.6807C45.7744 30.4747 45.7744 31.7737 44.3453 32.5687L39.3401 35.3487L39.244 35.4007Z" fill="url(#paint1_linear_47_4678)"/>
<path d="M39.3406 35.3475L35.0197 31.1235L22.2718 43.5872C22.7423 44.0752 23.5209 44.1345 24.3975 43.6485L39.3406 35.3475Z" fill="url(#paint2_linear_47_4678)"/>
<path d="M39.3401 26.9007L24.3975 18.6002C23.5209 18.1132 22.7424 18.1742 22.2719 18.6622L35.0207 31.1252L39.3401 26.9007Z" fill="url(#paint3_linear_47_4678)"/>
<path d="M77.5599 27.5929C75.2876 27.5929 73.4355 29.2752 73.4355 31.5921C73.4355 33.895 75.2876 35.5913 77.5599 35.5913C79.8332 35.5913 81.6853 33.895 81.6853 31.5921C81.6843 29.2752 79.8322 27.5929 77.5599 27.5929ZM77.5599 34.0172C76.3146 34.0172 75.2412 33.0176 75.2412 31.5931C75.2412 30.1534 76.3155 29.1689 77.5599 29.1689C78.8052 29.1689 79.8786 30.1534 79.8786 31.5931C79.8786 33.0167 78.8052 34.0172 77.5599 34.0172ZM68.5614 27.5929C66.289 27.5929 64.437 29.2752 64.437 31.5921C64.437 33.895 66.289 35.5913 68.5614 35.5913C70.8347 35.5913 72.6867 33.895 72.6867 31.5921C72.6867 29.2752 70.8347 27.5929 68.5614 27.5929ZM68.5614 34.0172C67.316 34.0172 66.2426 33.0176 66.2426 31.5931C66.2426 30.1534 67.317 29.1689 68.5614 29.1689C69.8067 29.1689 70.8801 30.1534 70.8801 31.5931C70.881 33.0167 69.8067 34.0172 68.5614 34.0172ZM57.8586 28.821V30.5173H62.0303C61.9057 31.4718 61.5791 32.1685 61.0806 32.6528C60.4739 33.2433 59.5242 33.895 57.8586 33.895C55.2906 33.895 53.283 31.8799 53.283 29.3805C53.283 26.8811 55.2906 24.866 57.8586 24.866C59.244 24.866 60.2555 25.3964 61.0024 26.0781L62.2322 24.8811C61.1888 23.9116 59.8044 23.1697 57.8586 23.1697C54.3409 23.1697 51.3836 25.9568 51.3836 29.3805C51.3836 32.8042 54.3409 35.5913 57.8586 35.5913C59.757 35.5913 61.1898 34.9848 62.3095 33.8489C63.4612 32.728 63.8196 31.1521 63.8196 29.8798C63.8196 29.4867 63.7887 29.1228 63.7259 28.8201L57.8586 28.821ZM101.632 30.1384C101.29 29.2451 100.247 27.5929 98.1143 27.5929C95.9975 27.5929 94.2382 29.2141 94.2382 31.5921C94.2382 33.8338 95.9821 35.5913 98.3163 35.5913C100.199 35.5913 101.289 34.4704 101.741 33.8188L100.34 32.9095C99.8736 33.5762 99.235 34.0153 98.3163 34.0153C97.3984 34.0153 96.7444 33.6063 96.3241 32.8033L101.818 30.5916L101.632 30.1384ZM96.0285 31.4718C95.9821 29.9259 97.2583 29.1388 98.1771 29.1388C98.893 29.1388 99.4998 29.4877 99.7026 29.987L96.0285 31.4718ZM91.562 35.3496H93.3668V23.5947H91.562V35.3496ZM88.6037 28.4872H88.5419C88.1371 28.017 87.3584 27.5929 86.3787 27.5929C84.3238 27.5929 82.4408 29.3504 82.4408 31.6081C82.4408 33.8498 84.3238 35.5922 86.3787 35.5922C87.3594 35.5922 88.1371 35.1682 88.5419 34.6839H88.6037V35.2594C88.6037 36.7893 87.7632 37.6073 86.4097 37.6073C85.3044 37.6073 84.6194 36.8353 84.3392 36.1837L82.7673 36.8203C83.2185 37.88 84.4165 39.1833 86.4097 39.1833C88.5264 39.1833 90.3167 37.9712 90.3167 35.0168V27.8365H88.6047L88.6037 28.4872ZM86.5343 34.0172C85.289 34.0172 84.2465 33.0017 84.2465 31.6081C84.2465 30.1986 85.289 29.1689 86.5343 29.1689C87.7632 29.1689 88.7284 30.1986 88.7284 31.6081C88.7284 33.0017 87.7632 34.0172 86.5343 34.0172ZM110.09 23.5947H105.77V35.3496H107.572V30.8963H110.089C112.087 30.8963 114.052 29.4886 114.052 27.246C114.052 25.0033 112.087 23.5947 110.09 23.5947ZM110.136 29.2601H107.572V25.2309H110.136C111.484 25.2309 112.249 26.3169 112.249 27.246C112.249 28.1562 111.484 29.2601 110.136 29.2601ZM121.277 27.5723C119.972 27.5723 118.62 28.1318 118.061 29.372L119.661 30.0218C120.003 29.372 120.641 29.1595 121.308 29.1595C122.241 29.1595 123.188 29.704 123.204 30.6716V30.7929C122.877 30.6114 122.178 30.3396 121.324 30.3396C119.599 30.3396 117.843 31.2621 117.843 32.9857C117.843 34.5588 119.257 35.5716 120.842 35.5716C122.053 35.5716 122.722 35.0422 123.141 34.4215H123.203V35.329H124.944V30.822C124.945 28.7364 123.343 27.5723 121.277 27.5723ZM121.059 34.0144C120.47 34.0144 119.646 33.7266 119.646 33.0158C119.646 32.1084 120.672 31.7604 121.557 31.7604C122.349 31.7604 122.723 31.9269 123.204 32.1535C123.064 33.2433 122.1 34.0144 121.059 34.0144ZM131.284 27.829L129.217 32.9255H129.155L127.01 27.829H125.068L128.285 34.9519L126.451 38.9144H128.331L133.288 27.829H131.284ZM115.047 35.3496H116.849V23.5947H115.047V35.3496Z" fill="#090909"/>
</g>
<defs>
<filter id="filter0_d_47_4678" x="0.5" y="0" width="158" height="70" filterUnits="userSpaceOnUse" color-interpolation-filters="sRGB">
<feFlood flood-opacity="0" result="BackgroundImageFix"/>
<feColorMatrix in="SourceAlpha" type="matrix" values="0 0 0 0 0 0 0 0 0 0 0 0 0 0 0 0 0 0 127 0" result="hardAlpha"/>
<feOffset dx="2" dy="4"/>
<feGaussianBlur stdDeviation="5"/>
<feComposite in2="hardAlpha" operator="out"/>
<feColorMatrix type="matrix" values="0 0 0 0 0 0 0 0 0 0 0 0 0 0 0 0 0 0 0.25 0"/>
<feBlend mode="normal" in2="BackgroundImageFix" result="effect1_dropShadow_47_4678"/>
<feBlend mode="normal" in="SourceGraphic" in2="effect1_dropShadow_47_4678" result="shape"/>
</filter>
<linearGradient id="paint0_linear_47_4678" x1="134.775" y1="8.48095" x2="122.693" y2="73.1618" gradientUnits="userSpaceOnUse">
<stop stop-color="#00A0FF"/>
<stop offset="0.0066" stop-color="#00A1FF"/>
<stop offset="0.2601" stop-color="#00BEFF"/>
<stop offset="0.5122" stop-color="#00D2FF"/>
<stop offset="0.7604" stop-color="#00DFFF"/>
<stop offset="1" stop-color="#00E3FF"/>
</linearGradient>
<linearGradient id="paint1_linear_47_4678" x1="156.965" y1="30.9971" x2="-171.559" y2="30.9971" gradientUnits="userSpaceOnUse">
<stop stop-color="#FFE000"/>
<stop offset="0.4087" stop-color="#FFBD00"/>
<stop offset="0.7754" stop-color="#FFA500"/>
<stop offset="1" stop-color="#FF9C00"/>
</linearGradient>
<linearGradient id="paint2_linear_47_4678" x1="127.529" y1="14.9183" x2="59.3968" y2="159.852" gradientUnits="userSpaceOnUse">
<stop stop-color="#FF3A44"/>
<stop offset="1" stop-color="#C31162"/>
</linearGradient>
<linearGradient id="paint3_linear_47_4678" x1="-17.4575" y1="-21.0744" x2="12.9637" y2="43.6413" gradientUnits="userSpaceOnUse">
<stop stop-color="#32A071"/>
<stop offset="0.0685" stop-color="#2DA771"/>
<stop offset="0.4762" stop-color="#15CF74"/>
<stop offset="0.8009" stop-color="#06E775"/>
<stop offset="1" stop-color="#00F076"/>
</linearGradient>
</defs>
</svg>
