<svg width="100" height="100" viewBox="0 0 100 100" fill="none" xmlns="http://www.w3.org/2000/svg">
<g clip-path="url(#clip0_47_723)">
<rect width="100" height="100" fill="white"/>
<path d="M0 0H100V100H0V0Z" fill="white"/>
<path fill-rule="evenodd" clip-rule="evenodd" d="M50.69 7.192C52.4813 7.19238 54.2004 7.89835 55.475 9.15703C56.7496 10.4157 57.4771 12.1258 57.5 13.917L57.608 22.435C57.6309 24.2406 58.3699 25.9633 59.6624 27.2244C60.955 28.4854 62.6953 29.1816 64.501 29.16L74.226 29.045C75.1272 29.0343 76.0215 29.2025 76.8573 29.5399C77.693 29.8773 78.4534 30.3772 79.0946 31.0106C79.7357 31.644 80.2448 32.3984 80.5923 33.2299C80.9398 34.0615 81.1188 34.9537 81.119 35.855V79.765C81.119 80.3209 81.3398 80.854 81.7329 81.2471C82.126 81.6402 82.6591 81.861 83.215 81.861C83.7709 81.861 84.304 81.6402 84.6971 81.2471C85.0902 80.854 85.311 80.3209 85.311 79.765V35.855C85.311 29.727 80.304 24.78 74.176 24.853L64.451 24.968C63.7566 24.9763 63.0874 24.7086 62.5903 24.2237C62.0932 23.7388 61.809 23.0764 61.8 22.382L61.692 13.864C61.616 7.842 56.712 3 50.689 3H24.004C17.927 3 13 7.927 13 14.004V83.17C13 89.247 17.927 94.174 24.004 94.174H74.569C75.1249 94.174 75.658 93.9532 76.0511 93.5601C76.4442 93.167 76.665 92.6339 76.665 92.078C76.665 91.5221 76.4442 90.989 76.0511 90.5959C75.658 90.2028 75.1249 89.982 74.569 89.982H24.004C22.1973 89.982 20.4647 89.2643 19.1872 87.9868C17.9097 86.7093 17.192 84.9767 17.192 83.17V14.004C17.192 12.1973 17.9097 10.4647 19.1872 9.18719C20.4647 7.90969 22.1973 7.192 24.004 7.192H50.69Z" fill="black"/>
<path fill-rule="evenodd" clip-rule="evenodd" d="M53.0469 4.37713C52.8835 4.5542 52.7567 4.76171 52.6736 4.98782C52.5904 5.21392 52.5527 5.45419 52.5624 5.69489C52.5722 5.93559 52.6292 6.17201 52.7304 6.39065C52.8315 6.60929 52.9747 6.80586 53.1519 6.96913L79.8759 31.5961C80.2364 31.9063 80.7033 32.0643 81.1782 32.0368C81.653 32.0093 82.0985 31.7984 82.4208 31.4486C82.7431 31.0988 82.9169 30.6375 82.9055 30.1621C82.8941 29.6866 82.6985 29.2341 82.3599 28.9001L55.6379 4.27113C55.2802 3.94169 54.8063 3.76779 54.3204 3.78767C53.8345 3.80754 53.3765 4.01957 53.0469 4.37713ZM27.6719 49.8971C27.6719 48.8841 28.4929 48.0631 29.5059 48.0631H60.4199C60.9063 48.0631 61.3728 48.2564 61.7167 48.6003C62.0606 48.9442 62.2539 49.4107 62.2539 49.8971C62.2539 50.3835 62.0606 50.85 61.7167 51.194C61.3728 51.5379 60.9063 51.7311 60.4199 51.7311H29.5059C29.0195 51.7311 28.553 51.5379 28.209 51.194C27.8651 50.85 27.6719 50.3835 27.6719 49.8971ZM89.2989 94.5721C88.6269 95.3301 87.4689 95.4012 86.7089 94.7301L72.5679 82.2161C72.3875 82.0565 72.2403 81.8629 72.1348 81.6464C72.0292 81.4299 71.9673 81.1948 71.9527 80.9544C71.938 80.714 71.9708 80.473 72.0493 80.2453C72.1277 80.0176 72.2503 79.8075 72.4099 79.6271C72.5695 79.4468 72.7631 79.2996 72.9796 79.1941C73.1961 79.0885 73.4312 79.0266 73.6716 79.0119C73.9121 78.9973 74.153 79.0301 74.3807 79.1085C74.6085 79.187 74.8185 79.3095 74.9989 79.4691L89.1419 91.9831C89.8999 92.6532 89.9709 93.8131 89.2999 94.5711L89.2989 94.5721ZM27.6719 60.9001C27.6719 59.8881 28.4929 59.0671 29.5059 59.0671H52.5599C52.8007 59.0671 53.0392 59.1146 53.2617 59.2067C53.4842 59.2989 53.6864 59.434 53.8567 59.6043C54.027 59.7746 54.1621 59.9768 54.2543 60.1993C54.3464 60.4218 54.3939 60.6603 54.3939 60.9011C54.3939 61.142 54.3464 61.3805 54.2543 61.603C54.1621 61.8255 54.027 62.0277 53.8567 62.198C53.6864 62.3683 53.4842 62.5034 53.2617 62.5955C53.0392 62.6877 52.8007 62.7351 52.5599 62.7351H29.5059C29.0195 62.7351 28.553 62.5419 28.209 62.198C27.8651 61.854 27.6719 61.3865 27.6719 60.9001ZM27.6719 71.9051C27.6719 70.8921 28.4929 70.0711 29.5059 70.0711H44.7019C45.1883 70.0711 45.6548 70.2644 45.9987 70.6083C46.3426 70.9523 46.5359 71.4187 46.5359 71.9051C46.5359 72.3915 46.3426 72.858 45.9987 73.202C45.6548 73.5459 45.1883 73.7391 44.7019 73.7391H29.5059C29.0195 73.7391 28.553 73.5459 28.209 73.202C27.8651 72.858 27.6719 72.3915 27.6719 71.9051Z" fill="black"/>
<path d="M30.2742 32.8784C28.1782 30.3634 27.8292 21.8754 27.9162 17.9454C29.0522 17.6834 31.8992 16.9494 34.2042 16.1114C36.5102 15.2724 38.1342 13.3164 38.6582 12.4434C39.2692 13.2294 41.0162 15.0634 43.1122 16.1114C45.2082 17.1594 48.1772 17.2464 49.4002 17.1594C49.9242 20.6524 50.5532 28.5294 48.8762 32.0934C47.1992 35.6564 41.3662 38.4684 38.6582 39.4284C36.7372 38.2934 32.3702 35.3944 30.2742 32.8784Z" fill="#50BAAB"/>
<path d="M38.6037 14.443C36.1777 17.073 33.0857 18.365 29.3007 18.271V18.727C29.3007 21.447 29.2987 24.166 29.3017 26.885C29.3087 32.021 32.9877 36.61 38.2767 38.065C38.4997 38.126 38.7787 38.134 38.9977 38.068C43.6657 36.661 46.5417 33.685 47.7257 29.286C47.9387 28.494 47.9717 27.648 47.9927 26.826C48.0327 25.259 47.9997 23.692 48.0067 22.125C48.0097 21.355 48.5787 20.821 49.3837 20.811C50.0767 20.802 50.6577 21.244 50.6557 21.891C50.6517 24.155 50.7857 26.437 50.5327 28.68C50.1387 32.178 48.3537 35.101 45.5577 37.468C43.749 39.0066 41.589 40.0758 39.2687 40.581C38.8687 40.67 38.3977 40.686 38.0087 40.579C31.9687 38.922 28.2817 35.189 26.8957 29.489C26.6927 28.654 26.6477 27.771 26.6407 26.909C26.6107 23.685 26.6277 20.461 26.6287 17.237C26.6287 16.303 27.1967 15.782 28.2107 15.779C29.5557 15.775 30.9127 15.855 32.2257 15.501C34.5107 14.884 36.2257 13.587 37.3657 11.643C37.6337 11.187 37.9897 10.892 38.5617 10.863C39.1837 10.831 39.6157 11.087 39.9087 11.597C40.7947 13.143 42.1017 14.285 43.7967 15.037C44.9502 15.5495 46.2018 15.8031 47.4637 15.78C48.0614 15.7683 48.6592 15.7693 49.2567 15.783C49.9827 15.803 50.5457 16.286 50.6517 16.949C50.7357 17.467 50.3757 17.997 49.8077 18.193C49.7427 18.215 49.6757 18.243 49.6087 18.245C46.4277 18.405 43.3467 18.151 40.7207 16.223C39.9837 15.683 39.3237 15.053 38.6037 14.443Z" fill="black"/>
<path d="M37.2875 27.7539L39.7955 25.4149C40.4046 24.8479 41.0015 24.2679 41.6255 23.7169C42.5015 22.9439 43.6655 23.2469 43.9495 24.3049C44.0655 24.7379 43.9095 25.1049 43.5915 25.4039C41.8207 27.068 40.0414 28.723 38.2536 30.3689C37.7085 30.8689 36.9265 30.8629 36.3765 30.3689C35.4765 29.5589 34.5945 28.7349 33.7235 27.8989C33.1905 27.3889 33.2015 26.5889 33.7095 26.1099C34.1925 25.6539 35.0425 25.6459 35.5895 26.1329C36.1605 26.6429 36.6955 27.1859 37.2875 27.7539Z" fill="black"/>
<path fill-rule="evenodd" clip-rule="evenodd" d="M65.6608 65.6172C63.5762 65.6172 61.577 66.4453 60.103 67.9194C58.6289 69.3934 57.8008 71.3926 57.8008 73.4772C57.8008 75.5618 58.6289 77.561 60.103 79.0351C61.577 80.5091 63.5762 81.3372 65.6608 81.3372C67.7454 81.3372 69.7446 80.5091 71.2187 79.0351C72.6927 77.561 73.5208 75.5618 73.5208 73.4772C73.5208 71.3926 72.6927 69.3934 71.2187 67.9194C69.7446 66.4453 67.7454 65.6172 65.6608 65.6172ZM54.1328 73.4772C54.1328 67.1102 59.2948 61.9492 65.6608 61.9492C72.0268 61.9492 77.1888 67.1092 77.1888 73.4762C77.1888 79.8432 72.0278 85.0042 65.6608 85.0042C59.2938 85.0042 54.1328 79.8452 54.1328 73.4772Z" fill="black"/>
<path fill-rule="evenodd" clip-rule="evenodd" d="M66.4813 69.0989C65.8382 68.9788 65.1764 69.0018 64.5432 69.1663C63.9099 69.3308 63.3206 69.6327 62.8172 70.0506C62.3138 70.4685 61.9085 70.9921 61.6303 71.5843C61.3521 72.1765 61.2077 72.8227 61.2073 73.4769C61.2073 73.7549 61.0969 74.0215 60.9004 74.218C60.7038 74.4145 60.4373 74.5249 60.1593 74.5249C59.8814 74.5249 59.6148 74.4145 59.4183 74.218C59.2217 74.0215 59.1113 73.7549 59.1113 73.4769C59.1112 72.5145 59.3231 71.564 59.7321 70.6928C60.141 69.8216 60.737 69.0513 61.4775 68.4366C62.218 67.8219 63.0849 67.378 64.0165 67.1364C64.9481 66.8949 65.9214 66.8616 66.8673 67.0389C67.0039 67.0629 67.1344 67.1136 67.2512 67.1884C67.3681 67.2631 67.4689 67.3602 67.5479 67.4742C67.6269 67.5882 67.6825 67.7167 67.7114 67.8523C67.7404 67.9879 67.7422 68.1279 67.7166 68.2642C67.6911 68.4005 67.6388 68.5304 67.5627 68.6464C67.4866 68.7623 67.3882 68.8619 67.2733 68.9396C67.1584 69.0172 67.0292 69.0713 66.8933 69.0986C66.7573 69.126 66.6173 69.1261 66.4813 69.0989Z" fill="black"/>
<path d="M72.0842 58.2672C70.8402 58.0262 69.0242 58.5342 69.0672 56.4872C69.1072 54.5702 70.8402 55.0112 72.0862 54.7572C72.3082 53.4792 71.9352 51.6372 74.0032 51.7352C75.7882 51.8182 75.4782 53.4402 75.5932 54.7002C76.8032 55.0762 78.7412 54.4942 78.6652 56.6202C78.5952 58.5642 76.8532 58.0232 75.6412 58.2642C75.3892 59.5082 75.9092 61.3242 73.8802 61.3202C71.8742 61.3172 72.3342 59.5252 72.0842 58.2672Z" fill="#50BAAB"/>
</g>
<defs>
<clipPath id="clip0_47_723">
<rect width="100" height="100" fill="white"/>
</clipPath>
</defs>
</svg>
