<svg width="186" height="40" viewBox="0 0 186 40" fill="none" xmlns="http://www.w3.org/2000/svg">
<g clip-path="url(#clip0_47_299)">
<path d="M0.174863 0.421637C5.95137 0.524062 11.752 0.222812 17.5285 0.397537C21.1705 0.505987 24.1009 0.584313 27.1942 2.74126C31.8914 6.01284 33.5013 11.7366 31.0774 16.9603C30.806 17.5507 29.582 19.2618 29.6061 19.6715C29.6242 19.9909 30.806 21.4851 31.0774 21.9671C35.2982 29.414 30.4563 39.1865 21.8639 39.8191C14.6403 40.3493 7.77839 40.1626 3.06312 34.0351C0.156774 30.2514 0.192952 27.5884 0.0783869 22.9973C-0.102506 15.5203 0.102506 7.99507 0 0.536112L0.174863 0.421637ZM20.8509 3.86191H3.77463C3.2621 4.44031 3.69021 5.40432 3.7083 6.09117C3.89522 12.3873 3.55153 18.9003 3.84096 25.1603C4.06406 29.9261 6.90408 33.8002 11.3721 35.5474C13.573 36.403 18.439 36.4271 20.8569 36.2041C28.1047 35.5354 31.3367 26.293 24.9632 21.5574C24.6014 21.2862 23.0759 20.5271 23.106 20.2439C27.0857 18.2074 29.5579 13.8212 28.0565 9.38082C27.1399 6.68162 23.6608 4.14509 20.8509 3.86191Z" fill="white"/>
<path d="M126.131 25.5154C126.433 25.3527 126.608 24.9069 126.734 24.6056C128.332 20.9123 129.562 16.6948 131.269 13.1039C131.431 12.7665 131.733 12.0254 132.065 11.8748C132.191 11.8206 133.886 11.6519 134.151 11.6519C134.338 11.6519 134.989 11.7784 135.11 11.8989L140.958 25.8046C141.091 25.8046 141.362 25.0033 141.423 24.8286C142.834 20.6291 143.925 16.3092 145.306 12.0977C145.396 11.9591 145.541 11.8326 145.698 11.7663C146.204 11.5494 150.25 11.5735 150.522 11.935L143.286 33.4624C142.852 33.848 139.861 33.86 139.336 33.6371C139.186 33.5708 139.035 33.4383 138.938 33.3118L133.723 19.7435C133.409 19.7435 133.12 20.6352 133.005 20.9003C131.22 25.0214 129.834 29.3232 128.079 33.4564C127.663 33.9564 124.485 33.7817 124.033 33.3057L116.441 12.0435C116.592 11.7543 116.918 11.694 117.219 11.6579C117.732 11.5976 121.072 11.5976 121.35 11.7302C121.44 11.7724 121.506 11.8688 121.567 11.9471L126.131 25.5154Z" fill="white"/>
<path d="M40.5491 30.6253C36.9494 26.7512 36.2198 21.5817 38.8427 16.9063C43.7268 8.19419 56.7631 9.46546 59.8564 18.9488C63.6672 30.6193 49.0933 39.8315 40.5491 30.6313V30.6253ZM47.8029 15.5929C39.7894 16.6171 40.7602 31.035 49.7747 29.9746C57.7339 29.0407 57.3782 14.3638 47.8029 15.5929Z" fill="white"/>
<path d="M104.393 11.1226C116.434 9.83931 122.337 24.3776 113.178 31.8667C106.787 37.0904 97.3861 33.6742 95.0165 26.0285C93.0025 19.5155 97.4766 11.8637 104.393 11.1226ZM105.116 15.5992C98.978 16.3403 97.6334 25.1488 102.186 28.6915C105.936 31.6137 111.074 29.4447 112.316 25.0886C113.715 20.1782 110.621 14.9365 105.122 15.5992H105.116Z" fill="white"/>
<path d="M164.481 33.6019C164.529 33.4573 164.336 33.2886 164.336 33.2404V11.8034H168.75C169.347 11.8034 169.202 12.906 169.479 12.9602C174.183 9.65854 184.952 10.0562 185.609 17.2199C185.862 19.9673 185.699 22.9618 185.748 25.7393C185.79 28.0589 186.176 30.6376 185.904 32.9572C185.88 33.1681 185.886 33.3308 185.681 33.4573H181.195C180.9 33.1802 180.857 32.7644 180.827 32.3788C180.544 28.9868 180.984 25.1488 180.839 21.6845C180.755 19.7022 180.797 18.4309 179.38 16.9307C176.172 13.5206 170.782 15.6534 169.588 19.8589C169.22 21.1542 169.28 22.9196 169.25 24.2873C169.184 27.0106 169.57 30.5231 169.262 33.1079C169.238 33.3187 169.244 33.4814 169.039 33.6079H164.481V33.6019Z" fill="white"/>
<path d="M65.2051 11.5134H69.6189C70.0048 11.9774 69.9867 12.6763 69.9807 13.2486C71.9283 11.9894 73.8035 11.0917 76.2094 11.4351C76.6435 11.4954 77.9158 11.7665 77.9098 12.2786C77.9098 12.5678 76.3601 15.978 76.131 16.1467L75.9622 16.2431C72.2117 15.5803 70.3364 17.8879 70.1133 21.3944C69.8782 25.1059 70.5354 29.5101 70.1193 33.095C70.0952 33.2999 70.053 33.6011 69.9023 33.7457C69.45 34.1916 66.2181 33.6674 65.4101 33.7457L65.0664 33.5107L65.193 11.5134H65.2051Z" fill="white"/>
<path d="M86.9839 11.5139C87.7919 11.6585 87.2854 13.219 87.7075 13.2431C89.5345 11.9658 91.4218 11.1102 93.7192 11.4356C94.1171 11.4898 95.5703 11.785 95.5643 12.2791L93.8578 16.0628C91.265 15.9784 88.9496 16.5267 88.0632 19.2319C87.2733 21.6299 87.8944 27.6248 87.7859 30.5047C87.7497 31.4868 87.5688 32.5894 87.5628 33.6016C87.3517 34.0354 85.3378 33.9269 84.8072 33.8968C84.2042 33.8667 83.1912 33.7823 82.7148 33.5293V11.7308L82.9319 11.5139C84.1439 11.6645 85.8383 11.309 86.9839 11.5139Z" fill="white"/>
<path d="M158.257 11.6582C158.323 11.9233 158.389 12.1643 158.407 12.4475C158.926 19.0569 158.033 26.3833 158.359 33.065L158.22 33.5711C157.997 33.8302 153.837 33.8603 153.535 33.6193C153.378 33.4928 153.33 33.3 153.324 33.1072L153.403 11.9534C153.433 11.8872 153.662 11.6642 153.692 11.6642H158.251L158.257 11.6582Z" fill="white"/>
<path d="M158.547 6.74841H155.58C155.345 6.74841 154.332 6.62189 154.024 6.56766C152.638 6.33871 151.751 5.14576 151.383 3.86243C150.268 -0.005619 154.851 -1.33112 156.877 1.56088C157.799 2.87433 157.311 3.94678 157.817 5.24216C158.07 5.88081 158.613 6.07964 158.547 6.75444V6.74841Z" fill="white"/>
<path d="M17.6686 31.0051C17.0717 30.8785 13.9784 26.9804 13.3272 26.2393C12.6278 25.438 9.62495 22.4676 9.40788 21.7747C9.27522 21.347 9.23301 19.6178 9.63098 19.3828C10.0289 19.1478 12.7122 19.4009 13.4659 19.3105C14.4307 19.2021 15.4919 18.4791 16.0768 17.7259C16.3481 17.3765 17.138 16.2679 16.3602 16.1353L9.11242 15.8522C8.97373 15.6594 9.49832 13.406 10.0229 13.2735C12.0007 13.0385 14.1231 13.6109 16.0828 13.394C16.2999 13.3699 16.4446 13.3819 16.5773 13.171C15.1603 10.032 12.0007 11.4961 9.36567 10.9117L9.76363 8.56192L9.99276 8.46552C13.7795 8.68844 17.8314 8.20644 21.582 8.46552C23.614 8.61012 23.4693 9.06199 22.812 10.8574C22.3477 10.984 19.3751 10.8333 19.3389 11.2852C19.6223 11.6467 20.0203 13.2132 20.2976 13.3879C20.9187 13.7856 22.3417 12.9421 23.0291 13.6651C23.1618 13.882 22.7698 15.4425 22.5829 15.6835C22.1246 16.2799 20.9971 15.7919 20.3338 16.0389C19.966 18.2742 18.8324 20.148 16.728 21.1C15.9019 21.4735 14.9372 21.5639 14.1231 21.9676C13.9543 22.805 20.8102 29.4807 21.6362 30.6436L21.4312 30.987H17.6686V31.0051Z" fill="white"/>
</g>
<defs>
<clipPath id="clip0_47_299">
<rect width="186" height="40" fill="white"/>
</clipPath>
</defs>
</svg>
