<svg width="67" height="81" viewBox="0 0 67 81" fill="none" xmlns="http://www.w3.org/2000/svg">
<path d="M0.356202 0.162911C12.1232 0.371905 23.9393 -0.242783 35.7062 0.113736C43.1251 0.335024 49.0945 0.494843 55.3956 4.89601C64.9639 11.5715 68.2435 23.2506 63.3058 33.9093C62.753 35.1141 60.2596 38.6055 60.3087 39.4415C60.3456 40.093 62.753 43.1419 63.3058 44.1254C71.9037 59.3205 62.0406 79.261 44.5376 80.5518C29.8227 81.6337 15.8449 81.2526 6.23968 68.7498C0.319354 61.0293 0.393051 55.5955 0.159677 46.2276C-0.208808 30.9711 0.208808 15.6162 0 0.396492L0.356202 0.162911ZM42.4741 7.18265H7.68906C6.64502 8.36285 7.5171 10.3299 7.55395 11.7313C7.93471 24.5783 7.23459 37.8679 7.82417 50.6411C8.27863 60.3655 14.0639 68.2703 23.1654 71.8355C27.6487 73.5812 37.5609 73.6304 42.4863 73.1756C57.2503 71.8109 63.8339 52.9523 50.851 43.2894C50.114 42.7362 47.0064 41.1872 47.0678 40.6094C55.1745 36.4541 60.2105 27.5042 57.152 18.4437C55.2851 12.9361 48.1979 7.76045 42.4741 7.18265Z" fill="url(#paint0_linear_797_3823)"/>
<path d="M35.9887 62.566C34.7727 62.3079 28.4716 54.3538 27.1451 52.8417C25.7203 51.2066 19.6034 45.1458 19.1612 43.732C18.891 42.8591 18.805 39.3308 19.6157 38.8514C20.4264 38.3719 25.8922 38.8883 27.4276 38.7038C29.3928 38.4826 31.5546 37.0073 32.7461 35.4706C33.2988 34.7576 34.9078 32.4955 33.3233 32.225L18.5594 31.6472C18.2769 31.2538 19.3455 26.656 20.4141 26.3855C24.4429 25.906 28.7664 27.074 32.7583 26.6314C33.2005 26.5822 33.4953 26.6068 33.7655 26.1765C30.8791 19.7715 24.4428 22.7588 19.0752 21.5663L19.8859 16.7718L20.3527 16.5751C28.0663 17.03 36.3204 16.0464 43.9603 16.5751C48.0996 16.8701 47.8048 17.7922 46.466 21.4557C45.5202 21.7139 39.4648 21.4065 39.3911 22.3286C39.9684 23.0662 40.779 26.2626 41.344 26.6191C42.6092 27.4305 45.5079 25.7093 46.9082 27.1846C47.1784 27.6272 46.38 30.8113 45.9992 31.303C45.0657 32.5201 42.7688 31.5243 41.4177 32.0283C40.6685 36.5893 38.3593 40.4127 34.0726 42.3551C32.3898 43.1173 30.4246 43.3017 28.7664 44.1254C28.4225 45.8342 42.3881 59.4557 44.0708 61.8284L43.6532 62.5292H35.9887V62.566Z" fill="url(#paint1_linear_797_3823)"/>
<defs>
<linearGradient id="paint0_linear_797_3823" x1="33.231" y1="80.9411" x2="33.231" y2="-2.46877e-07" gradientUnits="userSpaceOnUse">
<stop stop-color="#26837A"/>
<stop offset="1" stop-color="#50BAAB"/>
</linearGradient>
<linearGradient id="paint1_linear_797_3823" x1="33.231" y1="80.9411" x2="33.231" y2="-2.46877e-07" gradientUnits="userSpaceOnUse">
<stop stop-color="#26837A"/>
<stop offset="1" stop-color="#50BAAB"/>
</linearGradient>
</defs>
</svg>
